# xmcd
#
# Track frame offsets:
#	150
#	12395
#	28342
#	56860
#	71174
#	94701
#	111807
#	123446
#	134861
#	152624
#	167767
#	182230
#	200506
#	208187
#
# Disc length: 3204 seconds
#
# Revision: 1
# Processed by: cddbd v1.5.2PL0 Copyright (c) Steve Scherf et al.
# Submitted via: audiograbber 1.83.01
#
DISCID=d80c820e
DTITLE=Tomislav Goluban and Little Pigeon's ForHill Blues - ZAGORJE BLUES
DYEAR=2009
DGENRE=Blues
TTITLE0=ISEL BUDEM V KLETICU
TTITLE1=PREKO PLOTA
TTITLE2=OJ MLADOSTI MOJA
TTITLE3=BRZI VLAK
TTITLE4=LIBERTIN
TTITLE5=BLUES LOJZOVIH DIONICA
TTITLE6=VIDIMO SE I PCELE
TTITLE7=PURA Z MLINCI
TTITLE8=KAJ GOD BLUES
TTITLE9=CVITARA BLUES
TTITLE10=GOLUB V RUKI
TTITLE11=SERIF MIRKO
TTITLE12=SERIFOV OBRACUN
TTITLE13=VINSKI VRH
EXTD=
EXTT0=
EXTT1=
EXTT2=
EXTT3=
EXTT4=
EXTT5=
EXTT6=
EXTT7=
EXTT8=
EXTT9=
EXTT10=
EXTT11=
EXTT12=
EXTT13=
PLAYORDER=
